<svg width="554" height="554" viewBox="0 0 554 554" fill="none" xmlns="http://www.w3.org/2000/svg">
<path d="M277.001 17C420.595 17 537.003 160.594 537.003 277.001C537.003 420.595 420.595 537.003 277.001 537.003C133.407 537.003 17 393.409 17 277.001C17 133.407 133.407 17 277.001 17Z" stroke="#988734" stroke-width="33.3335"/>
<path fill-rule="evenodd" clip-rule="evenodd" d="M300.78 141.59L178.24 264.13C170.431 271.939 171.908 286.083 178.24 292.415C186.049 300.224 198.713 300.224 206.525 292.415L329.065 169.875C336.874 162.066 335.397 147.922 329.065 141.59C321.256 133.781 308.592 133.781 300.78 141.59Z" fill="#988734"/>
<path fill-rule="evenodd" clip-rule="evenodd" d="M329.07 390.8L206.53 268.26C198.722 260.451 184.577 261.928 178.245 268.26C170.437 276.069 170.437 288.733 178.245 296.545L300.785 419.085C308.594 426.894 322.738 425.417 329.07 419.085C336.879 411.276 336.879 398.612 329.07 390.8Z" fill="#988734"/>
</svg>
