<svg width="554" height="554" viewBox="0 0 554 554" fill="none" xmlns="http://www.w3.org/2000/svg">
<path d="M277.001 17C133.407 17 16.9998 160.594 16.9998 277.001C16.9998 420.595 133.407 537.003 277.001 537.003C420.595 537.003 537.002 393.409 537.002 277.001C537.002 133.407 420.595 17 277.001 17Z" stroke="black" stroke-width="33.3335"/>
<path fill-rule="evenodd" clip-rule="evenodd" d="M253.222 141.59L375.762 264.13C383.571 271.939 382.094 286.083 375.762 292.415C367.954 300.224 355.29 300.224 347.478 292.415L224.937 169.875C217.129 162.066 218.605 147.922 224.937 141.59C232.746 133.781 245.41 133.781 253.222 141.59Z" fill="black"/>
<path fill-rule="evenodd" clip-rule="evenodd" d="M224.932 390.8L347.472 268.26C355.281 260.451 369.425 261.928 375.757 268.26C383.566 276.069 383.566 288.733 375.757 296.545L253.217 419.085C245.409 426.894 231.264 425.417 224.932 419.085C217.124 411.276 217.124 398.612 224.932 390.8Z" fill="black"/>
</svg>
